<svg width="49" height="60" viewBox="0 0 49 60" fill="none" xmlns="http://www.w3.org/2000/svg">
<g clip-path="url(#clip0_121_3525)">
<path d="M18.2988 49.1621V44.7441H16.0137L15.8262 47.3105C15.7676 48.1465 15.6016 48.748 15.3281 49.1152V49.1621H18.2988ZM14.6016 51.6113H13.6523V49.1621H14.1621C14.5723 48.8926 14.8125 48.2676 14.8828 47.2871L15.1172 43.9062H19.3125V49.1621H20.2793V51.6113H19.3301V50H14.6016V51.6113Z" fill="black"/>
<path d="M23.7246 50.1055C22.873 50.1055 22.1895 49.8223 21.6738 49.2559C21.1582 48.6855 20.9004 47.918 20.9004 46.9531C20.9004 45.9883 21.1582 45.2227 21.6738 44.6562C22.1895 44.0859 22.873 43.8008 23.7246 43.8008C24.5723 43.8008 25.2539 44.0859 25.7695 44.6562C26.2852 45.2227 26.543 45.9883 26.543 46.9531C26.543 47.9141 26.2852 48.6797 25.7695 49.25C25.2539 49.8203 24.5723 50.1055 23.7246 50.1055ZM22.418 48.6113C22.7422 49.0098 23.1777 49.209 23.7246 49.209C24.2715 49.209 24.7051 49.0117 25.0254 48.6172C25.3457 48.2188 25.5059 47.6641 25.5059 46.9531C25.5059 46.2422 25.3457 45.6895 25.0254 45.2949C24.7051 44.8965 24.2715 44.6973 23.7246 44.6973C23.1777 44.6973 22.7422 44.8965 22.418 45.2949C22.0977 45.6934 21.9375 46.2461 21.9375 46.9531C21.9375 47.6602 22.0977 48.2129 22.418 48.6113Z" fill="black"/>
<path d="M28.6816 50H27.6738V43.9062H28.9102L31.0781 48.6523H31.125L33.3047 43.9062H34.4941V50H33.4805V45.6758H33.4395L31.4707 49.8242H30.6914L28.7227 45.6758H28.6816V50Z" fill="black"/>
<path d="M3.95508 59V53.7441H1.00781V59H0V52.9062H4.96875V59H3.95508Z" fill="black"/>
<path d="M8.92969 59.1055C8.07812 59.1055 7.39453 58.8223 6.87891 58.2559C6.36328 57.6855 6.10547 56.918 6.10547 55.9531C6.10547 54.9883 6.36328 54.2227 6.87891 53.6562C7.39453 53.0859 8.07812 52.8008 8.92969 52.8008C9.77734 52.8008 10.459 53.0859 10.9746 53.6562C11.4902 54.2227 11.748 54.9883 11.748 55.9531C11.748 56.9141 11.4902 57.6797 10.9746 58.25C10.459 58.8203 9.77734 59.1055 8.92969 59.1055ZM7.62305 57.6113C7.94727 58.0098 8.38281 58.209 8.92969 58.209C9.47656 58.209 9.91016 58.0117 10.2305 57.6172C10.5508 57.2188 10.7109 56.6641 10.7109 55.9531C10.7109 55.2422 10.5508 54.6895 10.2305 54.2949C9.91016 53.8965 9.47656 53.6973 8.92969 53.6973C8.38281 53.6973 7.94727 53.8965 7.62305 54.2949C7.30273 54.6934 7.14258 55.2461 7.14258 55.9531C7.14258 56.6602 7.30273 57.2129 7.62305 57.6113Z" fill="black"/>
<path d="M17.9238 54.7812H16.916C16.8223 54.4648 16.6445 54.2051 16.3828 54.002C16.1211 53.7988 15.7871 53.6973 15.3809 53.6973C14.8496 53.6973 14.4238 53.9043 14.1035 54.3184C13.7832 54.7285 13.623 55.2734 13.623 55.9531C13.623 56.6445 13.7832 57.1934 14.1035 57.5996C14.4277 58.0059 14.8574 58.209 15.3926 58.209C15.791 58.209 16.1211 58.1152 16.3828 57.9277C16.6484 57.7402 16.8301 57.4766 16.9277 57.1367H17.9355C17.834 57.7227 17.5527 58.1973 17.0918 58.5605C16.6309 58.9238 16.0625 59.1055 15.3867 59.1055C14.5352 59.1055 13.8555 58.8223 13.3477 58.2559C12.8398 57.6855 12.5859 56.918 12.5859 55.9531C12.5859 55.0039 12.8398 54.2422 13.3477 53.668C13.8555 53.0898 14.5312 52.8008 15.375 52.8008C16.0742 52.8008 16.6484 52.9922 17.0977 53.375C17.5508 53.7578 17.8262 54.2266 17.9238 54.7812Z" fill="black"/>
<path d="M23.3379 52.9062V53.7441H21.3691V59H20.3613V53.7441H18.3926V52.9062H23.3379Z" fill="black"/>
<path d="M27.2461 52.8008C28.0273 52.8008 28.6562 53.0879 29.1328 53.6621C29.6133 54.2363 29.8535 55 29.8535 55.9531C29.8535 56.9023 29.6152 57.666 29.1387 58.2441C28.6621 58.8184 28.0391 59.1055 27.2695 59.1055C26.8398 59.1055 26.4551 59.0078 26.1152 58.8125C25.7754 58.6172 25.5137 58.3496 25.3301 58.0098H25.3066V61.0332H24.2871V52.9062H25.2539V53.9375H25.2773C25.4688 53.5859 25.7363 53.3086 26.0801 53.1055C26.4238 52.9023 26.8125 52.8008 27.2461 52.8008ZM27.0469 58.209C27.5898 58.209 28.0195 58.0059 28.3359 57.5996C28.6523 57.1934 28.8105 56.6445 28.8105 55.9531C28.8105 55.2617 28.6523 54.7129 28.3359 54.3066C28.0195 53.9004 27.5898 53.6973 27.0469 53.6973C26.5234 53.6973 26.1016 53.9043 25.7812 54.3184C25.4609 54.7324 25.3008 55.2773 25.3008 55.9531C25.3008 56.6328 25.4609 57.1797 25.7812 57.5938C26.1016 58.0039 26.5234 58.209 27.0469 58.209Z" fill="black"/>
<path d="M33.5156 59.1055C32.6641 59.1055 31.9805 58.8223 31.4648 58.2559C30.9492 57.6855 30.6914 56.918 30.6914 55.9531C30.6914 54.9883 30.9492 54.2227 31.4648 53.6562C31.9805 53.0859 32.6641 52.8008 33.5156 52.8008C34.3633 52.8008 35.0449 53.0859 35.5605 53.6562C36.0762 54.2227 36.334 54.9883 36.334 55.9531C36.334 56.9141 36.0762 57.6797 35.5605 58.25C35.0449 58.8203 34.3633 59.1055 33.5156 59.1055ZM32.209 57.6113C32.5332 58.0098 32.9688 58.209 33.5156 58.209C34.0625 58.209 34.4961 58.0117 34.8164 57.6172C35.1367 57.2188 35.2969 56.6641 35.2969 55.9531C35.2969 55.2422 35.1367 54.6895 34.8164 54.2949C34.4961 53.8965 34.0625 53.6973 33.5156 53.6973C32.9688 53.6973 32.5332 53.8965 32.209 54.2949C31.8887 54.6934 31.7285 55.2461 31.7285 55.9531C31.7285 56.6602 31.8887 57.2129 32.209 57.6113Z" fill="black"/>
<path d="M39.9141 53.6855C39.4414 53.6855 39.0488 53.8496 38.7363 54.1777C38.4277 54.502 38.2578 54.9199 38.2266 55.4316H41.5371C41.5254 54.916 41.3711 54.4961 41.0742 54.1719C40.7773 53.8477 40.3906 53.6855 39.9141 53.6855ZM41.5137 57.2539H42.5156C42.4258 57.793 42.1445 58.2363 41.6719 58.584C41.2031 58.9316 40.6387 59.1055 39.9785 59.1055C39.1074 59.1055 38.4219 58.8242 37.9219 58.2617C37.4219 57.6992 37.1719 56.9375 37.1719 55.9766C37.1719 55.0234 37.4219 54.2559 37.9219 53.6738C38.4258 53.0918 39.0957 52.8008 39.9316 52.8008C40.752 52.8008 41.4004 53.0762 41.877 53.627C42.3535 54.1777 42.5918 54.916 42.5918 55.8418V56.2285H38.2207V56.2871C38.2207 56.873 38.3809 57.3418 38.7012 57.6934C39.0215 58.0449 39.4551 58.2207 40.002 58.2207C40.3848 58.2207 40.7109 58.1328 40.9805 57.957C41.25 57.7812 41.4277 57.5469 41.5137 57.2539Z" fill="black"/>
<path d="M47.7363 59V56.2578H44.7305V59H43.7227V52.9062H44.7305V55.4199H47.7363V52.9062H48.7441V59H47.7363Z" fill="black"/>
<path d="M29.9235 36.3894H19.0763L16.8125 39.54H32.1873L29.9235 36.3894Z" fill="#C1B0B5"/>
<path d="M24.5001 6.12201C24.4921 6.12752 13.9803 14.0804 10.0862 17.0262V33.239H38.914V17.0262L24.5001 6.12201Z" fill="#F3EFF0"/>
<path d="M24.4999 6.12184C24.496 6.12452 8.65764 18.1066 8.65747 18.1066C8.19543 18.4532 7.60206 18.6383 6.96304 18.5769C5.75548 18.4619 5.09564 17.7837 4.86422 16.7771C4.6376 15.7918 5.03799 14.8781 5.74907 14.3449L23.0457 1.26995C23.9035 0.627078 25.0957 0.626605 25.9541 1.26995C37.1714 9.74926 24.3144 0.0294924 43.2508 14.3449C43.8274 14.7765 44.1989 15.4586 44.1989 16.2257C44.1989 17.5309 43.1235 18.5887 41.7966 18.5887C41.2497 18.5887 40.746 18.4091 40.3424 18.1066C39.6598 17.5903 25.2125 6.66091 24.4999 6.12184Z" fill="#FF7B79"/>
<path d="M38.9137 30.1009C40.8468 30.2521 42.3763 31.7612 42.5596 33.6555C43.5334 34.1958 44.1988 35.2111 44.1988 36.3894C44.1988 38.1293 42.7646 39.54 40.9957 39.54C39.2028 39.54 35.9749 39.54 32.1872 39.54C30.8603 39.54 29.7849 38.4822 29.7849 37.1771C29.7849 36.15 30.4578 35.2776 31.4009 34.9543C31.307 33.1083 32.8109 31.6636 34.5895 31.6636C34.8458 31.6636 35.0916 31.7006 35.3303 31.7565C36.1784 30.5797 37.5574 29.9898 38.9137 30.1009Z" fill="#D8EC84"/>
<path d="M38.9138 0.787865V11.0635L38.9122 11.065L34.1091 7.43401V0.787865H38.9138Z" fill="#C1B0B5"/>
<path d="M27.703 17.0133C29.5992 17.0133 30.9061 18.5941 30.9061 20.4664C30.9061 23.0561 28.2996 24.7708 24.4999 28.0403C20.7003 24.7708 18.0938 23.0561 18.0938 20.4664C18.0938 18.5941 19.4006 17.0133 21.2968 17.0133C23.7312 17.0133 24.4999 19.7701 24.4999 19.7701C24.4999 19.7701 25.2687 17.0133 27.703 17.0133Z" fill="#FF7B79"/>
<path d="M19.2149 37.1771C19.2149 38.4823 18.1395 39.5401 16.8126 39.5401C13.025 39.5401 9.79704 39.5401 8.00411 39.5401C6.23521 39.5401 4.80103 38.1294 4.80103 36.3895C4.80103 35.2112 5.46647 34.1959 6.44021 33.6556C6.62358 31.7613 8.15306 30.2522 10.0861 30.1009C11.444 29.9896 12.8223 30.5809 13.6696 31.7566C13.9082 31.7006 14.154 31.6636 14.4103 31.6636C16.1801 31.6636 17.6134 33.075 17.6134 34.8142C17.6134 34.8622 17.6014 34.9071 17.599 34.9544C18.5428 35.278 19.2149 36.151 19.2149 37.1771Z" fill="#D8EC84"/>
<path d="M21.2971 16.2258C18.9702 16.2258 17.2932 18.141 17.2932 20.4665C17.2932 23.0224 19.2931 24.6984 22.3205 27.2354C22.848 27.6775 23.3936 28.1347 23.9729 28.6332C24.1239 28.7631 24.312 28.8281 24.5002 28.8281C24.6883 28.8281 24.8764 28.7632 25.0274 28.6332C25.6067 28.1347 26.1523 27.6775 26.6799 27.2354C29.7072 24.6984 31.7071 23.0224 31.7071 20.4665C31.7071 18.1408 30.0297 16.2258 27.7032 16.2258C26.1126 16.2258 25.1037 17.1191 24.5002 17.9818C23.8967 17.1191 22.8877 16.2258 21.2971 16.2258ZM25.2724 19.9786C25.2785 19.9568 25.9005 17.8011 27.7032 17.8011C29.0728 17.8011 30.1056 18.9469 30.1056 20.4665C30.1056 22.295 28.4251 23.7033 25.6412 26.0364C25.2718 26.346 24.8937 26.6629 24.5002 26.997C24.1067 26.6629 23.7285 26.3459 23.3591 26.0364C20.5752 23.7033 18.8948 22.295 18.8948 20.4665C18.8948 18.9469 19.9275 17.8011 21.2971 17.8011C23.0769 17.8011 23.7003 19.8828 23.7285 19.9809C23.8247 20.3218 24.1403 20.5578 24.5002 20.5578C24.8608 20.5578 25.177 20.3207 25.2724 19.9786Z" fill="black"/>
<path d="M14.0901 8.82199C14.5323 8.82199 14.8909 8.46934 14.8909 8.03434C14.8909 7.59933 14.5323 7.24669 14.0901 7.24669C13.6478 7.24669 13.2893 7.59933 13.2893 8.03434C13.2893 8.46934 13.6478 8.82199 14.0901 8.82199Z" fill="black"/>
<path d="M39.8574 18.7338C40.4189 19.1547 41.0896 19.377 41.7969 19.377C43.5631 19.377 45 17.9637 45 16.2265C45 15.2341 44.5393 14.3201 43.7391 13.721L39.7149 10.6791V0.788621C39.7149 0.353684 39.3564 0.000976562 38.9141 0.000976562H34.1095C33.6672 0.000976562 33.3087 0.353684 33.3087 0.788621V5.83656L26.4397 0.644167C25.8782 0.223329 25.2075 0.000976562 24.5002 0.000976562C23.7929 0.000976562 23.1222 0.223329 22.558 0.646136L16.461 5.25504C16.1104 5.52008 16.0445 6.01464 16.3141 6.35947C16.5835 6.7043 17.0863 6.76913 17.437 6.50401L23.5313 1.89715C23.8115 1.68724 24.1465 1.57627 24.5002 1.57627C24.8539 1.57627 25.1889 1.68724 25.4665 1.89518L42.7661 14.9723C43.1679 15.2731 43.3984 15.7302 43.3984 16.2265C43.3984 17.0951 42.68 17.8017 41.7969 17.8017C41.4432 17.8017 41.1081 17.6908 40.8308 17.483C39.9338 16.8044 25.712 6.0456 24.9884 5.49818C24.7108 5.28812 24.3266 5.27993 24.0399 5.47802C24.0036 5.50299 8.17383 17.4798 8.17215 17.4811C7.85112 17.722 7.44977 17.8328 7.04042 17.7936C6.24749 17.7181 5.81732 17.3513 5.64547 16.604C5.50149 15.9779 5.72723 15.3525 6.23724 14.9701L11.7249 10.8219C12.0755 10.5569 12.1413 10.0623 11.8718 9.71752C11.6023 9.37269 11.0994 9.30786 10.7489 9.57298L5.2639 13.7191C4.25173 14.4781 3.79945 15.7167 4.08349 16.9516C4.40836 18.3644 5.40372 19.2204 6.88547 19.3614C7.69785 19.4396 8.49958 19.2166 9.1434 18.7336L9.1422 18.7321C9.17624 18.7075 9.22268 18.673 9.28562 18.6258V29.4322C7.45337 29.8644 6.03649 31.3308 5.69816 33.1875C4.64179 33.9222 4.00053 35.1158 4.00053 36.3901C4.00053 38.5616 5.79666 40.3283 8.00439 40.3283H40.9962C43.2039 40.3283 45 38.5616 45 36.3901C45 35.1158 44.3588 33.9222 43.3024 33.1875C42.964 31.33 41.5462 29.8632 39.7149 29.4319V18.626L39.8574 18.7338ZM34.9102 1.57627H38.1133V9.46846L34.9102 7.04716V1.57627ZM16.8128 38.7531H8.00431C6.67967 38.7531 5.60199 37.6931 5.60199 36.3902C5.60199 35.5486 6.07405 34.7639 6.8339 34.3423C7.06204 34.2157 7.21274 33.9874 7.23765 33.7308C7.3942 32.1136 8.75543 30.8766 10.4067 30.8766C11.4379 30.8766 12.4136 31.3762 13.0166 32.2127C13.2056 32.4748 13.5375 32.5979 13.8554 32.5234C14.0606 32.4753 14.2422 32.4519 14.4106 32.4519C15.7037 32.4519 16.797 33.4735 16.8127 34.7871C16.7445 35.2606 17.0019 35.5844 17.3358 35.6988C17.9556 35.9112 18.4144 36.4876 18.4144 37.1777C18.4143 38.0464 17.6959 38.7531 16.8128 38.7531ZM30.6034 34.4491C30.1084 34.7245 29.6999 35.1217 29.4161 35.6026H19.584C19.3002 35.1216 18.8918 34.7244 18.397 34.4491C18.3836 34.3072 18.3623 34.1665 18.3335 34.0265H30.667C30.6382 34.1664 30.6169 34.3072 30.6034 34.4491ZM19.586 38.7531C19.8593 38.2894 20.0159 37.7512 20.0159 37.1778H28.9845C28.9845 37.7512 29.1412 38.2894 29.4144 38.7531H19.586ZM41.7628 33.7308C41.7877 33.9874 41.9384 34.2156 42.1666 34.3423C42.9264 34.7639 43.3985 35.5486 43.3985 36.3902C43.3985 37.6931 42.3208 38.7531 40.9962 38.7531H32.1877C31.3046 38.7531 30.5861 38.0464 30.5861 37.1778C30.5861 36.4869 31.0458 35.9109 31.6648 35.6989C32.0016 35.5835 32.2557 35.2579 32.1879 34.7871C32.2035 33.4769 33.2937 32.452 34.59 32.452C34.7583 32.452 34.9399 32.4754 35.1452 32.5234C35.4628 32.5978 35.795 32.475 35.984 32.2128C36.5871 31.3762 37.5627 30.8767 38.5939 30.8767C40.2445 30.8766 41.6061 32.1121 41.7628 33.7308ZM38.1133 29.3262C36.9166 29.4461 35.8026 30.0094 35.001 30.9003C34.8611 30.8845 34.7247 30.8766 34.5899 30.8766C33.3265 30.8766 32.1397 31.4705 31.3885 32.4519H17.612C16.8611 31.4708 15.674 30.8766 14.4105 30.8766C14.2756 30.8766 14.1392 30.8845 13.9994 30.9003C13.1978 30.0093 12.0839 29.4461 10.8871 29.3262V17.4147C12.0495 16.5353 23.1626 8.12781 24.5001 7.11616L38.1133 17.4145V29.3262Z" fill="black"/>
</g>
<defs>
<clipPath id="clip0_121_3525">
<rect width="49" height="60" fill="white"/>
</clipPath>
</defs>
</svg>
